# xmcd CD database file
#
# Track frame offsets:
#	150
#	15482
#	28755
#	44927
#	62650
#	75062
#	90060
#	104867
#	118652
#	130537
#	138977
#	151547
#	169262
#	191017
#	209585
#	224927
#	245090
#	261100
#	278410
#	293122
#
# Disc length: 4084 seconds
#
# Revision: 1
# Processed by: cddbd v1.5.1PL0 Copyright (c) Steve Scherf et al.
# Submitted via: CDex 1.51
#
DISCID=200ff214
DTITLE=Various Artist - SUPER HERO CHRONICLE スーパー戦隊 主題歌・挿入歌大全集? DISC1
DYEAR=2003
DGENRE=Anime
TTITLE0=MoJo コーラス：こおろぎ’73/科学戦隊ダイナマン
TTITLE1=MoJo コーラス：こおろぎ’73/待っていたんだダイナマン
TTITLE2=MoJo/炎の戦士〜FIRE CREW〜
TTITLE3=MoJo/俺のハートは夢じかけ
TTITLE4=MoJo/白昼の嵐〜BOMBER TWIST〜
TTITLE5=MoJo/スーパーダイナマイト
TTITLE6=MoJo/ゴーゴーダイナロボ
TTITLE7=MoJo コーラス：こおろぎ’73/エンドレスウェイ
TTITLE8=MoJo コーラス：こおろぎ’73/夢をかなえてダイナマン
TTITLE9=萩原佐代子/夢をかなえてダイナマン〜萩原佐代子ヴァージョン〜
TTITLE10=宮内タカユキ/超電子バイオマン
TTITLE11=宮内タカユキ コーラス：こおろぎ’73/俺達バイオマン
TTITLE12=石渡マキ/セクシャル・レディ
TTITLE13=宮内タカユキ/Blue Togetherness
TTITLE14=こおろぎ’73 コーラス：ジャパン・エコーシンガーズ/大空を翔けて！
TTITLE15=宮内タカユキ コーラス：こおろぎ’73 ジャパン・エコーシンガーズ/カラフル・バイオマン
TTITLE16=太田淑子 コーラス：コロムビアゆりかご会/夢みるピーボ
TTITLE17=宮内タカユキ/バイオロボの歌
TTITLE18=阪本良介/夕焼けのペガサス
TTITLE19=宮内タカユキ/バイオミック・ソルジャー
EXTD=YEAR: 2003
EXTT0=
EXTT1=
EXTT2=
EXTT3=
EXTT4=
EXTT5=
EXTT6=
EXTT7=
EXTT8=
EXTT9=
EXTT10=
EXTT11=
EXTT12=
EXTT13=
EXTT14=
EXTT15=
EXTT16=
EXTT17=
EXTT18=
EXTT19=
PLAYORDER=
